<?xml version="1.0" standalone="no"?><!DOCTYPE svg PUBLIC "-//W3C//DTD SVG 1.1//EN" "http://www.w3.org/Graphics/SVG/1.1/DTD/svg11.dtd"><svg t="1491293258822" class="icon" style="" viewBox="0 0 1024 1024" version="1.1" xmlns="http://www.w3.org/2000/svg" p-id="500" xmlns:xlink="http://www.w3.org/1999/xlink" width="200" height="200"><defs><style type="text/css"></style></defs><path d="M612.404224 158.270464c79.642624-53.960704 125.999104-127.410176 172.719104-90.002432 23.17824 18.555904 21.402624 61.769728 44.352512 171.785216 7.286784 34.515968 23.269376 46.3104 41.1648 74.998784 3.598336 5.782528 6.557696 10.927104 8.834048 14.707712 28.051456 45.990912 40.073216 102.501376 43.307008 152.773632 14.798848 230.004736-294.075392 413.47072-405.490688 476.628992-6.670336-13.386752-0.796672-66.528256-4.849664-107.010048-239.407104 1.412096-398.64832-175.633408-405.387264-352.45056-2.184192-57.556992 13.274112-118.713344 40.390656-165.001216 3.574784-6.078464 8.424448-13.637632 13.75232-21.356544 19.30752-27.936768 28.392448-38.956032 35.881984-72.902656C214.223872 162.870272 222.533632 78.286848 248.762368 63.828992c44.306432-24.361984 109.99296 56.329216 176.498688 101.363712 19.785728 13.386752 25.47712 14.253056 48.86016 14.253056 24.771584 0 62.009344 0 87.235584 0C585.264128 179.44576 592.048128 172.068864 612.404224 158.270464L612.404224 158.270464z" p-id="501" fill="#515151"></path></svg>